<svg xmlns="http://www.w3.org/2000/svg" viewBox="0 0 64 64">
<defs><clipPath id="c"><circle cx="32" cy="32" r="32"/></clipPath></defs>
<g clip-path="url(#c)">
<circle cx="32" cy="32" r="32" fill="#de2910"/>
<polygon points="20.00,9.00 22.59,16.44 30.46,16.60 24.18,21.36 26.47,28.90 20.00,24.40 13.53,28.90 15.82,21.36 9.54,16.60 17.41,16.44" fill="#ffde00"/>
<polygon points="38.83,6.17 37.58,8.75 39.56,10.82 36.73,10.43 35.37,12.95 34.87,10.13 32.05,9.63 34.57,8.27 34.18,5.44 36.25,7.42" fill="#ffde00"/>
<polygon points="44.46,14.00 42.59,16.17 43.97,18.68 41.33,17.57 39.37,19.65 39.61,16.80 37.02,15.58 39.81,14.93 40.17,12.09 41.65,14.54" fill="#ffde00"/>
<polygon points="43.00,21.54 42.46,24.35 44.91,25.83 42.07,26.19 41.42,28.98 40.20,26.39 37.35,26.63 39.43,24.67 38.32,22.03 40.83,23.41" fill="#ffde00"/>
<polygon points="36.00,28.00 36.94,30.71 39.80,30.76 37.52,32.49 38.35,35.24 36.00,33.60 33.65,35.24 34.48,32.49 32.20,30.76 35.06,30.71" fill="#ffde00"/>
</g><circle cx="32" cy="32" r="31.5" fill="none" stroke="rgba(0,0,0,0.15)" stroke-width="1"/></svg>