<svg xmlns="http://www.w3.org/2000/svg" viewBox="0 0 64 64">
<defs><clipPath id="c"><circle cx="32" cy="32" r="32"/></clipPath></defs>
<g clip-path="url(#c)">
<rect x="0" y="0.000" width="64" height="4.571" fill="#cc0001"/><rect x="0" y="4.571" width="64" height="4.571" fill="#ffffff"/><rect x="0" y="9.143" width="64" height="4.571" fill="#cc0001"/><rect x="0" y="13.714" width="64" height="4.571" fill="#ffffff"/><rect x="0" y="18.286" width="64" height="4.571" fill="#cc0001"/><rect x="0" y="22.857" width="64" height="4.571" fill="#ffffff"/><rect x="0" y="27.429" width="64" height="4.571" fill="#cc0001"/><rect x="0" y="32.000" width="64" height="4.571" fill="#ffffff"/><rect x="0" y="36.571" width="64" height="4.571" fill="#cc0001"/><rect x="0" y="41.143" width="64" height="4.571" fill="#ffffff"/><rect x="0" y="45.714" width="64" height="4.571" fill="#cc0001"/><rect x="0" y="50.286" width="64" height="4.571" fill="#ffffff"/><rect x="0" y="54.857" width="64" height="4.571" fill="#cc0001"/><rect x="0" y="59.429" width="64" height="4.571" fill="#ffffff"/>
<rect x="0" y="0" width="32" height="32" fill="#010066"/>
<circle cx="14" cy="16" r="9.5" fill="#ffcc00"/>
<circle cx="17.5" cy="16" r="8" fill="#010066"/>
<polygon points="40.00,6.80 41.02,11.52 43.99,7.71 42.87,12.40 47.19,10.26 44.14,14.00 48.97,13.95 44.60,16.00 48.97,18.05 44.14,18.00 47.19,21.74 42.87,19.60 43.99,24.29 41.02,20.48 40.00,25.20 38.98,20.48 36.01,24.29 37.13,19.60 32.81,21.74 35.86,18.00 31.03,18.05 35.40,16.00 31.03,13.95 35.86,14.00 32.81,10.26 37.13,12.40 36.01,7.71 38.98,11.52" fill="#ffcc00"/>
</g><circle cx="32" cy="32" r="31.5" fill="none" stroke="rgba(0,0,0,0.15)" stroke-width="1"/></svg>